<svg width="1200" height="800" viewBox="0 0 1200 800" fill="none" xmlns="http://www.w3.org/2000/svg">
  <rect width="1200" height="800" rx="48" fill="#FFFDF5"/>
  <circle cx="228" cy="124" r="88" fill="#FDE68A" fill-opacity="0.7"/>
  <circle cx="988" cy="140" r="110" fill="#CCFBF1" fill-opacity="0.75"/>
  <rect x="151" y="146" width="898" height="510" rx="36" fill="#FFFFFF"/>
  <rect x="221" y="222" width="294" height="356" rx="26" fill="#FFF7E1"/>
  <rect x="263" y="273" width="210" height="30" rx="15" fill="#F59E0B" fill-opacity="0.18"/>
  <rect x="263" y="330" width="210" height="30" rx="15" fill="#14B8A6" fill-opacity="0.16"/>
  <rect x="263" y="387" width="210" height="30" rx="15" fill="#FB7185" fill-opacity="0.16"/>
  <rect x="263" y="444" width="210" height="30" rx="15" fill="#0F172A" fill-opacity="0.08"/>
  <rect x="263" y="510" width="146" height="38" rx="19" fill="#14B8A6"/>
  <rect x="574" y="232" width="334" height="24" rx="12" fill="#0F172A" fill-opacity="0.12"/>
  <rect x="574" y="291" width="294" height="18" rx="9" fill="#0F172A" fill-opacity="0.1"/>
  <rect x="574" y="331" width="315" height="18" rx="9" fill="#0F172A" fill-opacity="0.1"/>
  <rect x="574" y="371" width="268" height="18" rx="9" fill="#0F172A" fill-opacity="0.1"/>
  <rect x="574" y="447" width="358" height="98" rx="22" fill="#ECFDF5"/>
  <path d="M625 496L680 524L747 463L802 509L872 435" stroke="#14B8A6" stroke-width="16" stroke-linecap="round" stroke-linejoin="round"/>
  <circle cx="625" cy="496" r="13" fill="#14B8A6"/>
  <circle cx="680" cy="524" r="13" fill="#14B8A6"/>
  <circle cx="747" cy="463" r="13" fill="#F59E0B"/>
  <circle cx="802" cy="509" r="13" fill="#14B8A6"/>
  <circle cx="872" cy="435" r="13" fill="#14B8A6"/>
</svg>
